<?xml version="1.0" encoding="UTF-8"?>
<!-- Created with Inkscape (http://www.inkscape.org/) -->
<svg width="210mm" height="210mm" enable-background="new" version="1.1" viewBox="0 0 210 210" xmlns="http://www.w3.org/2000/svg" xmlns:cc="http://creativecommons.org/ns#" xmlns:dc="http://purl.org/dc/elements/1.1/" xmlns:rdf="http://www.w3.org/1999/02/22-rdf-syntax-ns#" xmlns:xlink="http://www.w3.org/1999/xlink">
 <defs>
  <linearGradient id="linearGradient877">
   <stop stop-color="#ff8b1c" offset="0"/>
   <stop stop-color="#fff01c" offset="1"/>
  </linearGradient>
  <linearGradient id="linearGradient871" x1="18.168" x2="141.16" y1="99.942" y2="220.83" gradientTransform="translate(18.548 24.903)" gradientUnits="userSpaceOnUse">
   <stop stop-color="#ff2d33" offset="0"/>
   <stop stop-color="#ff842d" offset="1"/>
  </linearGradient>
  <linearGradient id="linearGradient879-3" x1="74.072" x2="195.66" y1="160.04" y2="281.63" gradientTransform="translate(-24.368 -24.302)" gradientUnits="userSpaceOnUse" xlink:href="#linearGradient877"/>
  <linearGradient id="linearGradient870" x1="74.072" x2="195.66" y1="160.04" y2="281.63" gradientTransform="translate(-24.368 -24.302)" gradientUnits="userSpaceOnUse" xlink:href="#linearGradient877"/>
 </defs>
 <metadata>
  <rdf:RDF>
   <cc:Work rdf:about="">
    <dc:format>image/svg+xml</dc:format>
    <dc:type rdf:resource="http://purl.org/dc/dcmitype/StillImage"/>
    <dc:title/>
   </cc:Work>
  </rdf:RDF>
 </metadata>
 <g transform="translate(0,-87)">
  <g>
   <rect id="YellowSquare1" x="49.703" y="135.74" width="121.59" height="121.59" enable-background="new" fill="url(#linearGradient879-3)"/>
   <rect id="RedSquare" x="36.716" y="124.84" width="122.99" height="120.89" fill="url(#linearGradient871)"/>
   <rect id="YellowSquare2" x="49.703" y="135.74" width="121.59" height="121.59" enable-background="new" fill="url(#linearGradient870)" opacity=".721"/>
  </g>
  <g id="LetterE" transform="matrix(.13332 0 0 .13859 31.332 141.96)">
   <g transform="translate(1.6822e-6 1.2158e-5)">
    <path transform="rotate(90.136 751.75 66.009)" d="m640.79 38.448 158.94 91.319-158.55 91.986z" fill-opacity=".8"/>
    <path transform="rotate(-89.864 610.44 144.38)" d="m640.79 38.448 158.94 91.319-158.55 91.986z" enable-background="new" fill-opacity=".8902"/>
    <path transform="rotate(90.136 626.73 99.63)" d="m640.79 38.448 158.94 91.319-158.55 91.986z" enable-background="new" fill-opacity=".6"/>
    <path transform="rotate(90.136 501.71 133.25)" d="m640.79 38.448 158.94 91.319-158.55 91.986z" enable-background="new" fill-opacity=".8"/>
    <g fill-opacity=".78039">
     <path transform="rotate(-89.864 677.84 395.02)" d="m640.79 38.448 158.94 91.319-158.55 91.986z" enable-background="new"/>
     <path transform="rotate(-89.864 644.14 269.7)" d="m640.79 38.448 158.94 91.319-158.55 91.986z" enable-background="new"/>
     <path transform="rotate(-89.864 702.12 52.538)" d="m640.79 38.448 158.94 91.319-158.55 91.986z" enable-background="new"/>
    </g>
    <path transform="rotate(-89.864 769.52 303.17)" d="m640.79 38.448 158.94 91.319-158.55 91.986z" enable-background="new" fill-opacity=".8902"/>
    <path transform="rotate(90.136 593.34 224.71)" d="m640.79 38.448 158.94 91.319-158.55 91.986z" enable-background="new" fill-opacity=".6"/>
    <path transform="rotate(90.136 376.69 166.87)" d="m640.79 38.448 158.94 91.319-158.55 91.986z" enable-background="new" fill-opacity=".6"/>
    <path transform="rotate(-89.864 711.54 520.34)" d="m640.79 38.448 158.94 91.319-158.55 91.986z" enable-background="new" fill-opacity=".8902"/>
    <path transform="rotate(90.136 251.67 200.5)" d="m640.79 38.448 158.94 91.319-158.55 91.986z" enable-background="new" fill-opacity=".8"/>
    <path transform="rotate(-89.864 745.24 645.65)" d="m640.79 38.448 158.94 91.319-158.55 91.986z" enable-background="new" fill-opacity=".6"/>
    <path transform="rotate(-89.864 836.92 553.81)" d="m640.79 38.448 158.94 91.319-158.55 91.986z" enable-background="new" fill-opacity=".78039"/>
    <path transform="rotate(90.136 343.3 291.96)" d="m640.79 38.448 158.94 91.319-158.55 91.986z" enable-background="new" fill-opacity=".8902"/>
    <path transform="rotate(90.136 843.38 157.47)" d="m640.79 38.448 158.94 91.319-158.55 91.986z" enable-background="new" fill-opacity=".6"/>
   </g>
  </g>
 </g>
</svg>
